<svg width="40" height="40" viewBox="0 0 40 40" fill="none" xmlns="http://www.w3.org/2000/svg">
<path fill-rule="evenodd" clip-rule="evenodd" d="M2.46 29.4549C5.67 35.3936 11.6225 39.2849 18.41 39.8836C19.4187 39.9711 21.4537 39.9174 22.5537 39.7711C26.9725 39.1874 31.0075 37.1974 34.1137 34.0711C35.6684 32.5234 36.9513 30.7249 37.9087 28.7511C39.2837 25.9536 39.9337 23.1424 39.9337 19.9799C39.9337 17.8699 39.68 16.0949 39.1087 14.2087C38.1125 10.9237 36.33 8.03615 33.7887 5.5874C30.7737 2.68365 27.0825 0.878652 22.8237 0.221152C21.535 0.0224018 18.4625 0.0249018 17.16 0.224902C12.6712 0.914902 8.85875 2.8749 5.70125 6.11615C3.77427 8.07983 2.28015 10.4255 1.31518 13.002C0.350223 15.5784 -0.0641593 18.3285 0.0987474 21.0749C0.271247 24.1586 1.0025 26.7499 2.46 29.4549ZM19.985 21.0799L31.8525 13.7711V11.8749H8.1475V13.8449L19.985 21.0799ZM31.8525 27.3037V15.0774L25.3287 19.0949L31.8525 27.3037ZM14.6337 19.1136L8.1475 15.1486V27.2686L14.6337 19.1136ZM24.375 19.6824L19.9862 22.3849L15.59 19.6974L8.8875 28.1249H31.0837L24.375 19.6824Z" fill="white"/>
</svg>
